<svg xmlns="http://www.w3.org/2000/svg" xmlns:xlink="http://www.w3.org/1999/xlink" version="1.1" x="0px" y="0px" viewBox="0 0 100 125" enable-background="new 0 0 100 100" xml:space="preserve"><g><path d="M39,69c-4.4,0-8,3.6-8,8s3.6,8,8,8s8-3.6,8-8S43.4,69,39,69z M39,81c-2.2,0-4-1.8-4-4s1.8-4,4-4s4,1.8,4,4S41.2,81,39,81z"/><path d="M77,69c-4.4,0-8,3.6-8,8s3.6,8,8,8s8-3.6,8-8S81.4,69,77,69z M77,81c-2.2,0-4-1.8-4-4s1.8-4,4-4s4,1.8,4,4S79.2,81,77,81z"/><path d="M87,33c0,0,0-0.1,0-0.1c0-0.1,0-0.3-0.1-0.4c0-0.1-0.1-0.2-0.1-0.4c-0.1-0.1-0.1-0.2-0.2-0.3c-0.1-0.1-0.2-0.2-0.3-0.3   c-0.1-0.1-0.2-0.1-0.3-0.2c-0.1-0.1-0.2-0.1-0.4-0.2c0,0-0.1,0-0.1-0.1c-0.1,0-0.2,0-0.3,0C85.2,31,85.1,31,85,31H31.9l-3-10.5   c-0.1-0.3-0.3-0.6-0.5-0.9l-4-4C24,15.2,23.5,15,23,15h-8c-1.1,0-2,0.9-2,2s0.9,2,2,2h7.2l3,3l11.9,41.5c0.2,0.9,1,1.5,1.9,1.5h38   c0.9,0,1.7-0.6,1.9-1.5l8-30c0-0.1,0-0.2,0-0.3C87,33.2,87,33.1,87,33z M80.8,41H70l0.8-6h11.6L80.8,41z M78.1,51h-9.5l0.8-6h10.3   L78.1,51z M51.4,51l-0.8-6h14.8l-0.8,6H51.4z M64,55l-0.8,6H52.8L52,55H64z M35.9,45h10.6l0.8,6h-9.7L35.9,45z M50.1,41l-0.8-6   h17.4l-0.8,6H50.1z M45.2,35l0.8,6H35c-0.1,0-0.1,0-0.2,0l-1.7-6H45.2z M38.8,55h9.1l0.8,6h-8.2L38.8,55z M75.5,61h-8.2l0.8-6h9   L75.5,61z"/></g></svg>
